<?xml version="1.0" encoding="UTF-8" standalone="no"?>
<!-- Created with Inkscape (http://www.inkscape.org/) -->

<svg
   xmlns:dc="http://purl.org/dc/elements/1.1/"
   xmlns:cc="http://creativecommons.org/ns#"
   xmlns:rdf="http://www.w3.org/1999/02/22-rdf-syntax-ns#"
   xmlns:svg="http://www.w3.org/2000/svg"
   xmlns="http://www.w3.org/2000/svg"
   xmlns:sodipodi="http://sodipodi.sourceforge.net/DTD/sodipodi-0.dtd"
   xmlns:inkscape="http://www.inkscape.org/namespaces/inkscape"
   width="210mm"
   height="297mm"
   viewBox="0 0 744.09448819 1052.3622047"
   id="svg2"
   version="1.1"
   inkscape:version="0.91 r13725"
   sodipodi:docname="drawing.svg">
  <defs
     id="defs4">
    <filter
       inkscape:collect="always"
       style="color-interpolation-filters:sRGB"
       id="filter4250"
       x="-0.041000001"
       width="1.082"
       y="-0.032086956"
       height="1.0641739">
      <feGaussianBlur
         inkscape:collect="always"
         stdDeviation="4.3928572"
         id="feGaussianBlur4252" />
    </filter>
  </defs>
  <sodipodi:namedview
     id="base"
     pagecolor="#ffffff"
     bordercolor="#666666"
     borderopacity="1.0"
     inkscape:pageopacity="0.0"
     inkscape:pageshadow="2"
     inkscape:zoom="0.35"
     inkscape:cx="-53.571429"
     inkscape:cy="634.28571"
     inkscape:document-units="px"
     inkscape:current-layer="layer1"
     showgrid="false"
     inkscape:window-width="1920"
     inkscape:window-height="1031"
     inkscape:window-x="0"
     inkscape:window-y="25"
     inkscape:window-maximized="1" />
  <metadata
     id="metadata7">
    <rdf:RDF>
      <cc:Work
         rdf:about="">
        <dc:format>image/svg+xml</dc:format>
        <dc:type
           rdf:resource="http://purl.org/dc/dcmitype/StillImage" />
        <dc:title></dc:title>
      </cc:Work>
    </rdf:RDF>
  </metadata>
  <g
     inkscape:label="Layer 1"
     inkscape:groupmode="layer"
     id="layer1">
    <flowRoot
       xml:space="preserve"
       id="flowRoot3336"
       style="font-style:normal;font-weight:normal;font-size:40px;line-height:125%;font-family:sans-serif;letter-spacing:0px;word-spacing:0px;fill:#000000;fill-opacity:1;stroke:none;stroke-width:1px;stroke-linecap:butt;stroke-linejoin:miter;stroke-opacity:1"><flowRegion
         id="flowRegion3338"><rect
           id="rect3340"
           width="334.28571"
           height="85.714287"
           x="34.285713"
           y="80.933632" /></flowRegion><flowPara
         id="flowPara3342">ClientName</flowPara></flowRoot>    <flowRoot
       xml:space="preserve"
       id="flowRoot3344"
       style="font-style:normal;font-weight:normal;font-size:40px;line-height:125%;font-family:sans-serif;letter-spacing:0px;word-spacing:0px;fill:#000000;fill-opacity:1;stroke:none;stroke-width:1px;stroke-linecap:butt;stroke-linejoin:miter;stroke-opacity:1"
       transform="translate(-31.428571,-28.571429)"><flowRegion
         id="flowRegion3346"><rect
           id="rect3348"
           width="285.71429"
           height="137.14285"
           x="57.142857"
           y="160.93364" /></flowRegion><flowPara
         id="flowPara3350">Skill level</flowPara></flowRoot>    <flowRoot
       xml:space="preserve"
       id="flowRoot3352"
       style="font-style:normal;font-weight:normal;font-size:40px;line-height:125%;font-family:sans-serif;letter-spacing:0px;word-spacing:0px;fill:#000000;fill-opacity:1;stroke:none;stroke-width:1px;stroke-linecap:butt;stroke-linejoin:miter;stroke-opacity:1"><flowRegion
         id="flowRegion3354"><rect
           id="rect3356"
           width="308.57144"
           height="125.71429"
           x="380"
           y="83.790779" /></flowRegion><flowPara
         id="flowPara3358">[Match Search]</flowPara></flowRoot>    <path
       style="fill:none;fill-rule:evenodd;stroke:#000000;stroke-width:1px;stroke-linecap:butt;stroke-linejoin:miter;stroke-opacity:1"
       d="m 2.8571429,483.79078 c 12.1663621,-0.91921 25.0459581,1.20969 37.1428571,0 4.832109,-0.48321 9.453606,-2.37394 14.285714,-2.85715 10.424199,-1.04242 20.988569,0.87 31.428572,0 5.773096,-0.48109 11.366813,-2.41283 17.142854,-2.85714 6.64703,-0.51131 13.33334,0 20,0 5.71429,0 11.42857,0 17.14286,0 16.19048,0 32.38095,0 48.57143,0 53.33333,0 106.66667,0 160,0 17.14286,0 34.28571,0 51.42857,0 6.66667,0 13.33333,0 20,0 2.85714,0 5.743,-0.40406 8.57143,0 30.95227,7.73807 -7.85354,-0.98169 22.85714,2.85714 3.89645,0.48706 7.61905,1.90477 11.42857,2.85715 3.80953,0.95238 7.61905,1.90476 11.42857,2.85714 3.80953,0.95238 7.54127,2.30181 11.42858,2.85714 2.82842,0.40406 5.71428,0 8.57142,0 3.80953,0 7.61905,0 11.42858,0 2.85714,0 5.75316,-0.46971 8.57142,0 2.97072,0.49512 5.60072,2.36203 8.57143,2.85714 7.75471,1.29246 17.95958,-1.29245 25.71429,0 22.5639,3.76066 -5.14327,2.85715 17.14286,2.85715 2.85714,0 5.71428,0 8.57142,0 1.90477,0 3.8664,-0.46198 5.71429,0 2.066,0.5165 3.69398,2.18371 5.71429,2.85714 1.80701,0.60234 3.80952,0 5.71428,0 4.76191,0 9.5886,-0.78285 14.28572,0 2.10061,0.3501 3.62605,2.4395 5.71428,2.85714 2.80166,0.56034 5.71429,0 8.57143,0 5.71429,0 11.42857,0 17.14286,0 15.23809,0 30.47619,0 45.71428,0 14.28572,0 28.57143,0 42.85715,0 3.80952,0 7.61904,0 11.42857,0 0.95238,0 2.85714,-0.95238 2.85714,0 0,0.95238 -1.90476,0 -2.85714,0"
       id="path3360"
       inkscape:connector-curvature="0" />
    <path
       style="fill:none;fill-rule:evenodd;stroke:#000000;stroke-width:1px;stroke-linecap:butt;stroke-linejoin:miter;stroke-opacity:1"
       d="m 54.285714,709.50506 c 0,51.42857 0,102.85714 0,154.28572 0,7.61904 0,15.23809 0,22.85714 0,4.7619 -0.933886,9.61628 0,14.28571 0.417647,2.08824 2.183708,3.69398 2.857143,5.71429 0.857143,2.57143 -0.857143,6 0,8.57143 0.425918,1.27775 2.254804,1.65246 2.857143,2.85714 0.912888,1.82578 -0.766571,9.12886 0,11.42857 1.621846,4.86554 4.305316,9.35432 5.714286,14.28572 0.523278,1.83147 -0.461973,3.86639 0,5.71428 0.516501,2.06601 2.340641,3.64828 2.857143,5.71429 0.461972,1.84789 -0.461973,3.86639 0,5.71428 3.28306,13.13225 2.857142,0.64824 2.857142,8.57143 0,6.70051 -0.673435,-1.34687 2.857143,5.71429 0.425918,0.85183 -0.933886,2.67036 0,2.85714 3.0944,0.61888 23.250177,0 28.571426,0 16.19048,0 32.38096,0 48.57143,0 48.57143,0 97.14286,0 145.71429,0 10.47619,0 20.95238,0 31.42857,0 3.00184,0 11.45043,-0.56706 14.28571,0 2.95321,0.59064 5.61822,2.2665 8.57143,2.85714 3.73555,0.74711 7.73279,-0.92394 11.42857,0 2.06601,0.5165 3.64828,2.34065 5.71429,2.85715 2.77183,0.69296 5.71428,0 8.57143,0 5.71428,0 11.42857,0 17.14285,0 1.04925,0 11.3136,0.11497 11.42858,0 0.67343,-0.67344 0,-1.90477 0,-2.85715 0,-4.7619 0,-9.52381 0,-14.28571 0,-27.61905 0,-55.2381 0,-82.85714 0,-40.95238 0,-81.90477 0,-122.85715 0,-7.61904 0,-15.23809 0,-22.85714 0,-0.95238 0.67343,-2.18371 0,-2.85714 -0.67344,-0.67344 -1.90477,0 -2.85715,0 -7.61904,0 -15.23809,0 -22.85714,0 -22.83051,0 8.40081,0.69296 -20,-2.85715 -3.78011,-0.47251 -7.61905,0 -11.42857,0 -3.80953,0 -7.61905,0 -11.42857,0 -10.47619,0 -20.95238,0 -31.42857,0 -3.80953,0 -7.61905,0 -11.42858,0 -3.80952,0 -7.64234,0.4207 -11.42857,0 -9.65301,-1.07255 -18.90721,-4.74786 -28.57143,-5.71428 -4.73827,-0.47383 -9.55293,0.52586 -14.28571,0 -3.90275,-0.43364 -7.59531,-2.00531 -11.42857,-2.85714 -4.74057,-1.05346 -9.45921,-2.32087 -14.28572,-2.85715 -3.78622,-0.42069 -7.61904,0 -11.42857,0 -3.80952,0 -7.61904,0 -11.42857,0 -4.7619,0 -9.55293,0.52587 -14.28571,0 -3.90275,-0.43364 -7.53213,-2.37008 -11.42857,-2.85714 -3.78011,-0.47251 -7.61905,0 -11.42858,0 -7.61904,0 -15.23809,0 -22.85714,0 -3.80952,0 -7.64846,0.47251 -11.42857,0 -3.89644,-0.48706 -7.53213,-2.37009 -11.42857,-2.85714 -6.61519,-0.8269 -13.333335,0 -20.000001,0 -2.857143,0 -5.76977,0.56033 -8.571429,0 -2.088233,-0.41765 -3.648281,-2.34064 -5.714286,-2.85715 -3.695781,-0.92394 -7.693026,0.74711 -11.428571,0 -2.953208,-0.59064 -5.559736,-2.85714 -8.571429,-2.85714 -3.926767,0 -7.578059,2.08704 -11.428571,2.85714 -2.571429,0.51429 -5.942857,0 -8.571429,0"
       id="path3362"
       inkscape:connector-curvature="0" />
    <path
       style="fill:none;fill-rule:evenodd;stroke:#000000;stroke-width:1px;stroke-linecap:butt;stroke-linejoin:miter;stroke-opacity:1"
       d="m 108.57143,718.07649 c 0,31.42857 0,62.85714 0,94.28571 0,6.66667 0,13.33334 0,20 0,3.80953 -0.74711,7.69303 0,11.42858 0.59064,2.9532 1.73863,5.77514 2.85714,8.57142 0.79091,1.97728 2.4395,3.62606 2.85714,5.71429 0.56034,2.80166 0,5.71429 0,8.57143 0,1.90476 -0.60233,3.90727 0,5.71428 0.42592,1.27776 2.43123,1.57939 2.85715,2.85715 1.20467,3.61403 -0.92395,7.73279 0,11.42857 0.5165,2.066 2.1837,3.69398 2.85714,5.71428 0.30117,0.90351 0,1.90477 0,2.85715 0,2.33914 -0.61706,12.43452 0,14.28571 0.67344,2.02031 2.34064,3.64828 2.85714,5.71429 0.46198,1.84789 0,3.80952 0,5.71428 0,1.90477 0,3.80953 0,5.71429 0,0.95238 -0.30117,1.95363 0,2.85714 0.67344,2.02031 2.18371,3.69398 2.85715,5.71429 0.60233,1.80701 0,3.80952 0,5.71428 0,6.66667 0,13.33334 0,20 0,0.95238 0,1.90477 0,2.85715 0,0.95238 -0.42592,2.0053 0,2.85714 0.60233,1.20468 2.2548,1.65246 2.85714,2.85714 1.14286,2.28572 -1.14286,6.28572 0,8.57143 0.60234,1.20468 2.2548,1.65247 2.85714,2.85714 0.85184,1.70367 -0.85183,4.01062 0,5.71429 0.60234,1.20468 1.90476,1.90476 2.85714,2.85714"
       id="path3364"
       inkscape:connector-curvature="0" />
    <path
       style="fill:none;fill-rule:evenodd;stroke:#000000;stroke-width:1px;stroke-linecap:butt;stroke-linejoin:miter;stroke-opacity:1"
       d="m 217.14286,740.93363 c -8.91727,-9.68168 -8.57143,-8.48573 -8.57143,-17.14285 0,-0.95238 0,-3.80953 0,-2.85715 0,1.90477 -0.75032,3.96354 0,5.71429 2.18755,5.10428 8.57143,8.73243 8.57143,14.28571 0,6.38877 -6.55113,11.08195 -8.57143,17.14286 -0.90351,2.71052 0,5.71429 0,8.57143 0,1.90476 0,3.80952 0,5.71428 0,14.28572 0,28.57143 0,42.85715 0,14.28571 0,28.57143 0,42.85714 0,4.13198 -0.60342,16.98289 0,20 0.41765,2.08823 2.34064,3.64828 2.85714,5.71429 0.69296,2.77183 -0.90351,5.8609 0,8.57142 0.67344,2.02031 2.18371,3.69399 2.85714,5.71429 0.60234,1.80702 -0.60233,3.90727 0,5.71429 0.67344,2.0203 2.34065,3.64828 2.85715,5.71428 0.46197,1.84789 -0.60234,3.90727 0,5.71429 0.42591,1.27775 2.43122,1.57939 2.85714,2.85714 0.60234,1.80702 0,3.80952 0,5.71429 0,0.95238 -0.42592,2.0053 0,2.85714 0.60234,1.20468 2.2548,1.65246 2.85714,2.85714 0.94675,1.8935 -0.79821,9.03393 0,11.42857 0.67344,2.02031 2.18371,3.69398 2.85715,5.71429 0.65507,1.96523 -0.84289,6.88566 0,8.57143 0.60233,1.20467 2.2548,1.65246 2.85714,2.85714 0.51662,1.03324 0,12.29846 0,14.28571 0,0.95239 -0.67344,2.18371 0,2.85715 0.67343,0.67343 2.85714,-0.95238 2.85714,0 0,0.95238 -1.90476,0 -2.85714,0"
       id="path3366"
       inkscape:connector-curvature="0" />
    <path
       style="fill:none;fill-rule:evenodd;stroke:#000000;stroke-width:1px;stroke-linecap:butt;stroke-linejoin:miter;stroke-opacity:1"
       d="m 314.28571,729.50506 c 0,68.57143 0,137.14286 0,205.71429 0,7.61905 0,15.23809 0,22.85714 0,0.95238 0,1.90476 0,2.85714 0,0.95238 -0.67343,2.18371 0,2.85715 0.67344,0.67343 1.90477,0 2.85715,0 1.90476,2.85714 4.17861,5.50009 5.71428,8.57142 1.79701,3.59402 -4.10342,5.71429 2.85715,5.71429"
       id="path3368"
       inkscape:connector-curvature="0" />
    <path
       style="fill:none;fill-rule:evenodd;stroke:#000000;stroke-width:1px;stroke-linecap:butt;stroke-linejoin:miter;stroke-opacity:1"
       d="m 162.85714,718.07649 c 0,47.61905 0,95.2381 0,142.85714 0,10.47619 0,20.95238 0,31.42857 0,1.90477 0,3.80953 0,5.71429 0,1.90476 -0.46197,3.8664 0,5.71429 0.5165,2.066 2.34064,3.64828 2.85715,5.71428 0.92394,3.69578 -1.20468,7.81454 0,11.42857 0.42591,1.27776 2.2548,1.65247 2.85714,2.85715 0.84288,1.68577 -0.65508,6.60619 0,8.57142 3.28306,9.84919 2.85714,2.11647 2.85714,8.57143 0,1.90477 0,3.80953 0,5.71429 0,0.95238 -0.42592,2.00531 0,2.85714 0.60234,1.20468 2.25481,1.65247 2.85714,2.85714 0.85184,1.70368 -0.85183,4.01062 0,5.71429 0.60234,1.20468 2.25481,1.65247 2.85715,2.85714 0.42591,0.85184 -0.42592,2.00531 0,2.85715 0.60234,1.20467 2.2548,1.65246 2.85714,2.85714 0.42592,0.85183 -0.42592,2.00531 0,2.85714 0.60234,1.20468 2.2548,1.65247 2.85714,2.85714 0.56642,1.13284 -0.5841,7.98733 0,8.57143 0.67344,0.67344 2.18371,-0.67343 2.85715,0 2.8185,2.81851 -5.85451,5.71429 2.85714,5.71429"
       id="path3370"
       inkscape:connector-curvature="0" />
    <path
       style="fill:none;fill-rule:evenodd;stroke:#000000;stroke-width:1px;stroke-linecap:butt;stroke-linejoin:miter;stroke-opacity:1"
       d="m 268.57143,732.3622 c 0,82.85715 0,165.71429 0,248.57143"
       id="path3372"
       inkscape:connector-curvature="0" />
    <path
       style="fill:none;fill-rule:evenodd;stroke:#000000;stroke-width:1px;stroke-linecap:butt;stroke-linejoin:miter;stroke-opacity:1"
       d="m 371.42857,732.3622 c 0,43.80953 0,87.61905 0,131.42858 0,7.61904 0,15.23809 0,22.85714 0,4.7619 0.93389,9.61628 0,14.28571 -0.41765,2.08824 -2.34064,3.64828 -2.85714,5.71429 -0.50046,2.00183 0,16.10834 0,17.14286 0,14.28571 0,28.57142 0,42.85714"
       id="path3374"
       inkscape:connector-curvature="0" />
    <text
       xml:space="preserve"
       style="font-style:normal;font-weight:normal;font-size:40px;line-height:125%;font-family:sans-serif;letter-spacing:0px;word-spacing:0px;fill:#000000;fill-opacity:1;stroke:none;stroke-width:1px;stroke-linecap:butt;stroke-linejoin:miter;stroke-opacity:1"
       x="545.71429"
       y="789.50507"
       id="text3376"
       sodipodi:linespacing="125%"><tspan
         sodipodi:role="line"
         id="tspan3378"
         x="545.71429"
         y="789.50507">Chat</tspan></text>
    <rect
       style="fill:#0000ff;fill-rule:evenodd;stroke:#000000;stroke-width:5;stroke-linecap:butt;stroke-linejoin:miter;stroke-opacity:1;opacity:0;filter:url(#filter4250);stroke-miterlimit:4;stroke-dasharray:none"
       id="rect3380"
       width="257.14285"
       height="328.57144"
       x="460"
       y="689.50507" />
    <rect
       style="opacity:0;stroke-width:5;stroke-miterlimit:4;stroke-dasharray:none"
       id="rect4254"
       width="228.57143"
       height="302.85715"
       x="471.42856"
       y="689.50507" />
    <path
       style="fill:none;fill-rule:evenodd;stroke:#000000;stroke-width:1px;stroke-linecap:butt;stroke-linejoin:miter;stroke-opacity:1"
       d="m 488.57143,726.64792 c 0,64.7619 0,129.52381 0,194.28571 0,10.47619 0,20.95238 0,31.42857 0,3.05797 -0.82154,13.0534 0,14.28572 1.05657,1.58486 3.80952,0 5.71428,0 6.66667,0 13.33334,0 20,0 40,0 80,0 120,0 23.80953,0 47.61905,0 71.42858,0 1.08877,0 14.00839,0.27732 14.28571,0 0.67344,-0.67344 0,-1.90476 0,-2.85714 0,-5.71429 0,-11.42858 0,-17.14286 0,-9.52381 0,-19.04762 0,-28.57143 0,-1.49406 0.37563,-10.67731 0,-11.42857 -0.60234,-1.20468 -2.2548,-1.65247 -2.85714,-2.85714 -0.42592,-0.85184 0,-1.90477 0,-2.85715 0,-1.90476 0,-3.80952 0,-5.71428 0,-6.66667 0,-13.33334 0,-20 0,-1.90476 0,-3.80953 0,-5.71429 0,-0.95238 0.42591,-2.00531 0,-2.85714 -0.60234,-1.20468 -2.25481,-1.65247 -2.85715,-2.85714 -0.59711,-1.19423 0.31221,-17.50235 0,-20 -0.60233,-4.81871 -2.32086,-9.45921 -2.85714,-14.28572 -0.42069,-3.78622 0,-7.61905 0,-11.42857 0,-3.80952 0,-7.61905 0,-11.42857 0,-3.80952 0.53875,-7.65734 0,-11.42857 -0.42592,-2.98143 -2.36202,-5.60072 -2.85714,-8.57143 -0.78285,-4.69711 1.15493,-9.66599 0,-14.28572 -0.5165,-2.066 -2.34064,-3.64828 -2.85714,-5.71428 -0.46198,-1.84789 0.60233,-3.90727 0,-5.71429 -0.42592,-1.27775 -2.25481,-1.65246 -2.85715,-2.85714 -0.42591,-0.85183 0.30117,-1.95363 0,-2.85714 -0.67343,-2.02031 -2.34064,-3.64828 -2.85714,-5.71429 -0.92395,-3.69578 0.92395,-7.73279 0,-11.42857 -0.5165,-2.066 -2.34064,-3.64828 -2.85714,-5.71429 -0.46198,-1.84789 0.60234,-3.90727 0,-5.71428 -0.42592,-1.27775 -2.25481,-1.65247 -2.85715,-2.85714 -1.57086,-3.14173 2.75155,-5.76709 -2.85714,-8.57143 -0.85183,-0.42592 -1.90476,0 -2.85714,0 -4.76191,0 -9.52381,0 -14.28572,0 -12.38095,0 -24.7619,0 -37.14285,0 -41.90476,0 -83.80953,0 -125.71429,0 -10.47619,0 -20.95238,0 -31.42857,0 -0.95238,0 -1.90476,0 -2.85714,0 -0.95238,0 -2.18371,-0.67344 -2.85715,0 -0.67343,0.67343 0.67344,2.18371 0,2.85714 -0.67343,0.67344 -2.55597,-0.90351 -2.85714,0 -0.90351,2.71052 0,5.71429 0,8.57143 0,0.95238 -0.67343,2.18371 0,2.85714 0.67344,0.67344 1.90476,0 2.85714,0 6.78391,0 1.9332,0.23099 14.28572,-2.85714 z"
       id="path4256"
       inkscape:connector-curvature="0" />
    <flowRoot
       xml:space="preserve"
       id="flowRoot4266"
       style="font-style:normal;font-weight:normal;font-size:40px;line-height:125%;font-family:sans-serif;letter-spacing:0px;word-spacing:0px;fill:#000000;fill-opacity:1;stroke:none;stroke-width:1px;stroke-linecap:butt;stroke-linejoin:miter;stroke-opacity:1"><flowRegion
         id="flowRegion4268"><rect
           id="rect4270"
           width="617.14288"
           height="108.57143"
           x="57.142857"
           y="549.50507" /></flowRegion><flowPara
         id="flowPara4272"
         style="font-size:35px">ClientName VS OpponentName</flowPara></flowRoot>    <path
       style="opacity:0;stroke-width:5;stroke-miterlimit:4;stroke-dasharray:none"
       id="path4274"
       sodipodi:type="arc"
       sodipodi:cx="77.14286"
       sodipodi:cy="932.36218"
       sodipodi:rx="2.8571429"
       sodipodi:ry="2.8571429"
       sodipodi:start="0"
       sodipodi:end="0.81569192"
       d="m 80.000003,932.36218 a 2.8571429,2.8571429 0 0 1 -0.898958,2.08057 l -1.958185,-2.08057 z" />
    <path
       style="opacity:0;stroke-width:5;stroke-miterlimit:4;stroke-dasharray:none;fill:#ff0000"
       id="path4276"
       sodipodi:type="arc"
       sodipodi:cx="150"
       sodipodi:cy="946.64795"
       sodipodi:rx="21.428572"
       sodipodi:ry="28.571428"
       sodipodi:start="0"
       sodipodi:end="0.81569184"
       d="m 171.42857,946.64795 a 21.428572,28.571428 0 0 1 -6.74218,20.80571 L 150,946.64795 Z" />
    <path
       style="opacity:0;fill:#ff0000;stroke-width:5;stroke-miterlimit:4;stroke-dasharray:none"
       id="path4281"
       sodipodi:type="arc"
       sodipodi:cx="397.14285"
       sodipodi:cy="962.36218"
       sodipodi:rx="5.7142859"
       sodipodi:ry="7.1428571"
       sodipodi:start="0"
       sodipodi:end="0.81569184"
       d="m 402.85714,962.36218 a 5.7142859,7.1428571 0 0 1 -1.79792,5.20143 l -3.91637,-5.20143 z" />
    <path
       style="opacity:0;fill:#ff0000;stroke-width:5;stroke-miterlimit:4;stroke-dasharray:none"
       id="path4283"
       sodipodi:type="arc"
       sodipodi:cx="291.42856"
       sodipodi:cy="956.64795"
       sodipodi:rx="11.428572"
       sodipodi:ry="7.1428571"
       sodipodi:start="0"
       sodipodi:end="0.81569184"
       d="m 302.85713,956.64795 a 11.428572,7.1428571 0 0 1 -3.59583,5.20143 l -7.83274,-5.20143 z" />
    <path
       style="fill:#ff0000;fill-rule:evenodd;stroke:#000000;stroke-width:1px;stroke-linecap:butt;stroke-linejoin:miter;stroke-opacity:1"
       d="m 385.71429,960.93363 c 0,-4.7619 0,-9.52381 0,-14.28571 0,-0.95238 -0.67344,-2.18371 0,-2.85714 0.67343,-0.67344 2.1837,-0.67344 2.85714,0 0.67343,0.67343 0,1.90476 0,2.85714 0,0.95238 0.18678,1.92326 0,2.85714 -0.7701,3.85051 -4.61325,7.91637 -2.85714,11.42857 1.90476,3.80953 8.02123,3.15878 11.42857,5.71429 0.7619,0.57143 0,1.90476 0,2.85714 0,0.95238 0,3.80953 0,2.85714 0,-3.80952 0,-7.61904 0,-11.42857 0,-0.95238 0.95238,-2.85714 0,-2.85714 -3.92677,0 -7.50181,2.85714 -11.42857,2.85714 -3.92677,0 -7.91637,-1.10104 -11.42858,-2.85714 -0.85183,-0.42592 0,-1.90476 0,-2.85714 0,-0.95238 0,-1.90476 0,-2.85715 0,-0.95238 0,-1.90476 0,-2.85714 0,-0.95238 -0.67343,-2.18371 0,-2.85714 0.67344,-0.67344 1.90477,0 2.85715,0 4.7619,0 9.52381,0 14.28571,0 0.95238,0 2.18371,-0.67344 2.85714,0 3.67989,3.67989 -8.57142,5.80887 -8.57142,14.28571 0,4.76191 6.12144,7.34528 8.57142,11.42857 0.49,0.81666 0,1.90477 0,2.85715 0,0.95238 0.67344,2.18371 0,2.85714 -0.67343,0.67344 -2.43122,0.85184 -2.85714,0 -0.85183,-1.70367 0.60234,-3.90727 0,-5.71429 -1.34687,-4.04061 -5.71428,-7.16939 -5.71428,-11.42857 0,-4.25917 4.13246,-7.47402 5.71428,-11.42857 0.35371,-0.88426 -0.95238,-2.85714 0,-2.85714 0.95238,0 0.35371,1.97288 0,2.85714 -1.58182,3.95455 -5.71428,7.1694 -5.71428,11.42857 0,4.25918 5.71428,7.1694 5.71428,11.42857 0,1.90477 -3.80952,0 -5.71428,0 -0.95239,0 -2.85715,0.95239 -2.85715,0 0,-3.92676 2.85715,-7.5018 2.85715,-11.42857 0,-3.92676 -2.08704,-7.57806 -2.85715,-11.42857 -0.17617,-0.88086 -1.41104,-12.83962 2.85715,-8.57143 0.67343,0.67344 0,1.90477 0,2.85715 0,3.5239 -0.17622,17.0988 0,17.14285 4.61972,1.15493 7.16939,-6.44184 11.42857,-8.57143 0.85183,-0.42591 0,1.90477 0,2.85715 0,0.95238 0.85183,2.43122 0,2.85714 -2.68997,1.34498 -24.21137,5.4137 -25.71429,5.71429"
       id="path4288"
       inkscape:connector-curvature="0" />
    <path
       style="fill:#ff0000;fill-rule:evenodd;stroke:#000000;stroke-width:1px;stroke-linecap:butt;stroke-linejoin:miter;stroke-opacity:1"
       d="m 205.71429,963.79078 c -8.91727,-9.68169 -8.57143,-8.48573 -8.57143,-17.14286 0,-0.95238 -0.67344,-2.18371 0,-2.85714 0.67343,-0.67344 1.90476,0 2.85714,0 0.95238,0 1.90476,0 2.85714,0 0.95238,0 2.18371,-0.67344 2.85715,0 1.34687,1.34687 -0.85184,4.01061 0,5.71428 0.60233,1.20468 2.2548,1.65247 2.85714,2.85714 1.7561,3.51221 -3.93591,7.6529 -2.85714,11.42858 1.30819,4.57868 6.12144,7.34527 8.57142,11.42857 0.49,0.81666 0,1.90476 0,2.85714 0,0.95238 0.85184,2.43123 0,2.85714 -0.67186,0.33593 -9.55165,0 -11.42857,0 -0.95238,0 -1.90476,0 -2.85714,0 -0.95238,0 -2.43123,0.85184 -2.85714,0 -0.85184,-1.70367 0.60234,-3.90727 0,-5.71428 -0.42592,-1.27776 -2.25481,-1.65247 -2.85715,-2.85715 -0.43476,-0.86952 0,-7.28469 0,-8.57142 0,-7.61905 0,-15.2381 0,-22.85715 0,-0.95238 0,-1.90476 0,-2.85714 0,-0.95238 -0.67343,-2.18371 0,-2.85714 0.67344,-0.67344 1.90477,0 2.85715,0 5.71428,0 11.42857,0 17.14285,0 1.34714,0 14.15623,-0.12949 14.28572,0 0.67343,0.67343 0,1.90476 0,2.85714 0,0.95238 0,1.90476 0,2.85714 0,5.71429 0,11.42857 0,17.14286 0,1.28674 0.43476,7.7019 0,8.57143 -2.6802,5.36041 -3.66527,1.22175 -8.57143,2.85714 -2.55551,0.85184 -3.30493,4.50961 -5.71429,5.71429 -0.85183,0.42592 -2.0053,-0.42592 -2.85714,0 -1.20468,0.60234 -1.65246,2.2548 -2.85714,2.85714 -0.85184,0.42592 -2.00531,-0.42592 -2.85714,0 -1.20468,0.60234 -1.65247,2.2548 -2.85715,2.85714 -0.86952,0.43477 -7.28469,0 -8.57143,0 -0.95238,0 -2.1837,0.67344 -2.85714,0 -0.67343,-0.67343 0,-1.90476 0,-2.85714 0,-0.95238 0,-1.90476 0,-2.85714 0,-5.71429 0,-11.42857 0,-17.14286 0,-0.95238 -0.67343,-2.18371 0,-2.85714 0.11498,-0.11498 10.37933,0 11.42857,0 0.95238,0 2.55598,-0.90351 2.85715,0 0.9035,2.71052 0,5.71428 0,8.57143 z"
       id="path4290"
       inkscape:connector-curvature="0" />
    <path
       style="fill:#0000ff;fill-rule:evenodd;stroke:#000000;stroke-width:1px;stroke-linecap:butt;stroke-linejoin:miter;stroke-opacity:1"
       d="m 288.57143,958.07649 c 0,-3.80952 -0.92395,-7.73279 0,-11.42857 0.23098,-0.92395 1.90476,0 2.85714,0 3.48766,0 6.58851,-1.10869 8.57143,2.85714 0,7.61905 -0.95238,-0.95238 2.85714,2.85714 1.34687,1.34687 -1.34687,4.36742 0,5.71429 0.67344,0.67344 2.18371,-0.67343 2.85715,0 0.11497,0.11498 0,10.37932 0,11.42857 0,0.76016 0.47182,8.33552 0,8.57143 -1.07184,0.53592 -15.44179,0 -17.14286,0 -1.49406,0 -10.67731,0.37563 -11.42857,0 -1.20468,-0.60234 -2.25481,-1.65247 -2.85715,-2.85714 -0.42591,-0.85184 0,-1.90476 0,-2.85715 0,-0.95238 0,-1.90476 0,-2.85714 0,-5.71428 0,-11.42857 0,-17.14286 0,-0.95238 0,-1.90476 0,-2.85714 0,-0.95238 -0.67343,-2.18371 0,-2.85714 0.1295,-0.12949 12.93858,0 14.28572,0 1.34714,0 14.15622,-0.12949 14.28571,0 0.67344,0.67343 0,1.90476 0,2.85714 0,4.76191 0,9.52381 0,14.28572 0,0.95238 0.67344,2.1837 0,2.85714 -0.67343,0.67343 -1.90476,0 -2.85714,0 -0.95238,0 -2.09524,0.57143 -2.85714,0 -3.23249,-2.42437 -4.53082,-8.57143 -8.57143,-8.57143 -4.76191,0 -7.1694,6.44184 -11.42857,8.57143 -0.85184,0.42592 0,-1.90476 0,-2.85714 0,-1.90477 0,-3.80953 0,-5.71429 0,-0.95238 -0.95238,-2.85714 0,-2.85714 3.92676,0 11.42857,-1.06963 11.42857,2.85714 0,4.25918 -9.52381,9.52381 -11.42857,5.71429 -4.56082,-9.12163 56.4809,-5.71429 -11.42857,-5.71429"
       id="path4292"
       inkscape:connector-curvature="0" />
    <path
       style="fill:#0000ff;fill-rule:evenodd;stroke:#000000;stroke-width:1px;stroke-linecap:butt;stroke-linejoin:miter;stroke-opacity:1"
       d="m 180,886.64792 c 0,-9.52381 0,-19.04762 0,-28.57143 0,-0.95238 -0.95238,-2.85714 0,-2.85714 0.95238,0 0,1.90476 0,2.85714 0,6.70051 -0.67344,-1.34687 2.85714,5.71429 0.42592,0.85183 -0.67343,2.1837 0,2.85714 0.67344,0.67343 2.18371,-0.67344 2.85715,0 0.67343,0.67343 -0.67344,2.18371 0,2.85714 0.67343,0.67344 2.1837,-0.67343 2.85714,0 0.67343,0.67344 -0.42592,2.00531 0,2.85714 0.60234,1.20468 2.2548,1.65247 2.85714,2.85715 0.42592,0.85183 -0.67343,2.18371 0,2.85714 0.67344,0.67344 2.18371,-0.67343 2.85714,0 0.67344,0.67344 0,1.90476 0,2.85714 0,4.76191 0,9.52381 0,14.28572 0,0.69293 0.0919,8.47954 0,8.57143 -0.67343,0.67343 -1.90476,0 -2.85714,0 -5.71428,0 -11.42857,0 -17.14286,0 -0.95238,0 -1.90476,0 -2.85714,0 -0.95238,0 -2.18371,0.67343 -2.85714,0 -0.67344,-0.67344 0,-1.90477 0,-2.85715 0,-0.95238 0,-1.90476 0,-2.85714 0,-7.61905 0,-15.23809 0,-22.85714 0,-0.95238 -0.67344,-2.18371 0,-2.85715 0.11497,-0.11497 10.37932,0 11.42857,0 0.69293,0 8.47954,-0.0919 8.57143,0 0.0919,0.0919 0,7.8785 0,8.57143 0,1.90477 0,3.80953 0,5.71429 0,0.95238 0.95238,2.85714 0,2.85714 -3.01169,0 -5.71429,-1.90476 -8.57143,-2.85714 z"
       id="path4294"
       inkscape:connector-curvature="0" />
    <flowRoot
       xml:space="preserve"
       id="flowRoot4296"
       style="fill:black;stroke:none;stroke-opacity:1;stroke-width:1px;stroke-linejoin:miter;stroke-linecap:butt;fill-opacity:1;font-family:sans-serif;font-style:normal;font-weight:normal;font-size:40px;line-height:125%;letter-spacing:0px;word-spacing:0px"><flowRegion
         id="flowRegion4298"><rect
           id="rect4300"
           width="334.28571"
           height="42.857143"
           x="160"
           y="466.64792" /></flowRegion><flowPara
         id="flowPara4302"></flowPara></flowRoot>    <text
       xml:space="preserve"
       style="font-style:normal;font-weight:normal;font-size:40px;line-height:125%;font-family:sans-serif;letter-spacing:0px;word-spacing:0px;fill:#000000;fill-opacity:1;stroke:none;stroke-width:1px;stroke-linecap:butt;stroke-linejoin:miter;stroke-opacity:1"
       x="154.28572"
       y="492.36221"
       id="text4304"
       sodipodi:linespacing="125%"><tspan
         sodipodi:role="line"
         id="tspan4306"
         x="154.28572"
         y="492.36221">When Match Found</tspan></text>
    <path
       style="fill:none;fill-rule:evenodd;stroke:#000000;stroke-width:1px;stroke-linecap:butt;stroke-linejoin:miter;stroke-opacity:1"
       d="m 80,680.93363 c 0,3.80953 0,7.61905 0,11.42857 0,1.90477 0,3.80953 0,5.71429 0,0.95238 0,1.90476 0,2.85714 0,0.95238 0.952381,2.85715 0,2.85715 -0.952381,0 0,-1.90477 0,-2.85715 0,-0.95238 0,-1.90476 0,-2.85714 0,-3.57342 0.344458,-16.97063 0,-17.14286 -3.809524,-1.90476 -7.474025,4.13247 -11.428571,5.71429 -0.884264,0.3537 -1.904762,0 -2.857143,0 -0.952381,0 -2.183708,0.67343 -2.857143,0 -0.673435,-0.67344 0.673435,-2.18371 0,-2.85714 -0.673435,-0.67344 -2.183708,0.67343 -2.857143,0 -0.673435,-0.67344 0,-1.90477 0,-2.85715 0,-7.61904 0,-15.23809 0,-22.85714 0,-0.95238 0,-1.90476 0,-2.85714 0,-0.95238 -0.673435,-2.18371 0,-2.85715 0.09188,-0.0919 7.878495,0 8.571429,0 0.952381,0 2.183707,-0.67343 2.857142,0 0.0027,0.003 -0.0043,8.55848 0,8.57143 0.425918,1.27776 2.254805,1.65247 2.857143,2.85715 0.851836,1.70367 -0.707411,3.94575 0,5.71428 7.276686,18.19172 4.85987,4.29935 8.571429,22.85714 0.373554,1.86778 0,3.80953 0,5.71429 0,5.71429 0,11.42857 0,17.14286 0,0.95238 0.673435,2.18371 0,2.85714 -0.673435,0.67344 -1.904762,0 -2.857143,0 -2.857143,0 -5.714286,0 -8.571429,0 -0.952381,0 -2.183707,0.67344 -2.857142,0 -0.673435,-0.67343 0,-1.90476 0,-2.85714 0,-2.85715 0,-5.71429 0,-8.57143 0,-8.57143 0,-17.14286 0,-25.71429 0,-3.80952 -0.74711,-7.69302 0,-11.42857 1.47971,-7.39855 2.603413,-3.90512 5.714285,-8.57143 6.918963,-10.37844 -0.836672,-2.02047 5.714286,-8.57143 3.530578,-3.53057 2.857143,-1.51027 2.857143,-5.71428 0,-0.95238 -0.952381,-2.85714 0,-2.85714 0.952381,0 0,1.90476 0,2.85714 0,4.7619 0,9.52381 0,14.28571 0,9.97992 0.117567,8.10116 -2.857143,20 z"
       id="path4308"
       inkscape:connector-curvature="0" />
    <path
       style="fill:none;fill-rule:evenodd;stroke:#000000;stroke-width:1px;stroke-linecap:butt;stroke-linejoin:miter;stroke-opacity:1"
       d="m 125.71429,663.79078 c 0,7.61904 0,15.23809 0,22.85714 0,7.61905 0,15.23809 0,22.85714 0,6.66667 0,13.33334 0,20 0,0.95238 -0.67344,2.18371 0,2.85714 0.67343,0.67344 1.90476,0 2.85714,0 1.28673,0 7.7019,0.43477 8.57143,0 1.20467,-0.60233 1.90476,-1.90476 2.85714,-2.85714 0.95238,-0.95238 2.2548,-1.65246 2.85714,-2.85714 0.42592,-0.85184 0,-1.90476 0,-2.85714 0,-1.90477 -0.60234,-3.90727 0,-5.71429 0.42592,-1.27775 2.25481,-1.65247 2.85715,-2.85714 0.42591,-0.85184 0,-1.90476 0,-2.85715 0,-1.90476 0,-3.80952 0,-5.71428 0,-7.61905 0,-15.2381 0,-22.85714 0,-5.71429 0,-11.42858 0,-17.14286 0,-1.90476 0.85183,-4.01062 0,-5.71429 -0.42592,-0.85183 -2.85715,0.95238 -2.85715,0 0,-0.95238 3.80953,0 2.85715,0 -9.97992,0 -8.10116,-0.11756 -20,2.85715 z"
       id="path4310"
       inkscape:connector-curvature="0" />
    <path
       style="fill:none;fill-rule:evenodd;stroke:#000000;stroke-width:1px;stroke-linecap:butt;stroke-linejoin:miter;stroke-opacity:1"
       d="m 185.71429,680.93363 c 0,4.76191 0,9.52381 0,14.28572 0,3.80952 0,7.61905 0,11.42857 0,2.85714 0,5.71428 0,8.57143 0,1.34713 -0.1295,14.15622 0,14.28571 0.40293,0.40293 7.98534,0.29304 8.57142,0 1.20468,-0.60234 2.43123,-1.57939 2.85715,-2.85714 0.4356,-1.30682 -0.63568,-10.15721 0,-11.42857 0.60234,-1.20468 2.2548,-1.65247 2.85714,-2.85715 0.42592,-0.85183 -0.30117,-1.95363 0,-2.85714 0.67344,-2.0203 2.18371,-3.69398 2.85714,-5.71428 0.64696,-1.94086 0,-16.31467 0,-20 0,-0.69294 0.0919,-8.47955 0,-8.57143 -0.67343,-0.67344 -1.90476,0 -2.85714,0 -0.95238,0 -1.97288,-0.35371 -2.85714,0 -3.95455,1.58182 -10.0817,1.67367 -11.42857,5.71428 -1.34687,4.04061 4.13246,7.47403 5.71428,11.42857 0.35371,0.88427 0,1.90477 0,2.85715 0,2.85714 0,5.71428 0,8.57143 0,4.7619 0,9.52381 0,14.28571"
       id="path4312"
       inkscape:connector-curvature="0" />
    <path
       style="fill:none;fill-rule:evenodd;stroke:#000000;stroke-width:1px;stroke-linecap:butt;stroke-linejoin:miter;stroke-opacity:1"
       d="m 234.28571,680.93363 c 0,9.52381 0,19.04762 0,28.57143 0,0.95238 0.95239,2.85714 0,2.85714 -0.95238,0 0,-3.80952 0,-2.85714 0,1.90476 -0.85183,4.01062 0,5.71429 0.42592,0.85183 1.90477,0 2.85715,0 0.95238,0 1.90476,0 2.85714,0 0.95238,0 1.90476,0 2.85714,0 0.95238,0 2.18371,0.67343 2.85715,0 1.34687,-1.34687 -0.60234,-3.90727 0,-5.71429 0.67343,-2.0203 2.34064,-3.64828 2.85714,-5.71428 0.93915,-3.75661 -1.18281,-10.7373 0,-14.28572 0.42592,-1.27775 2.2548,-1.65246 2.85714,-2.85714 0.43476,-0.86953 0,-7.28469 0,-8.57143 0,-3.80952 0,-7.61905 0,-11.42857 0,-0.95238 0,-1.90476 0,-2.85714 0,-0.95238 0.67344,-3.53058 0,-2.85715 -3.28306,3.28306 -2.85714,5.05293 -2.85714,8.57143 0,16.19048 0,32.38095 0,48.57143 0,5.02902 2.36314,5.71429 -2.85714,5.71429"
       id="path4314"
       inkscape:connector-curvature="0" />
    <path
       style="fill:none;fill-rule:evenodd;stroke:#000000;stroke-width:1px;stroke-linecap:butt;stroke-linejoin:miter;stroke-opacity:1"
       d="m 288.57143,720.93363 c 0,-6.66666 0,-13.33333 0,-20 0,-5.71428 0,-11.42857 0,-17.14285 0,-4.76191 0,-9.52381 0,-14.28572 0,-3.80952 0,-7.61905 0,-11.42857 0,-0.95238 -0.95238,-2.85714 0,-2.85714 0.95238,0 0,1.90476 0,2.85714 0,5.71429 0,11.42857 0,17.14286 0,11.42857 0,22.85714 0,34.28571 0,3.80953 -2.69374,8.73483 0,11.42857 2.12959,2.12959 5.64966,-2.1267 8.57143,-2.85714 1.17304,-0.29326 5.36795,0.34634 5.71428,0 0.58411,-0.5841 -0.56641,-7.43859 0,-8.57143 0.60234,-1.20468 2.25481,-1.65246 2.85715,-2.85714 0.37563,-0.75126 0,-9.93451 0,-11.42857 0,-8.57143 0,-17.14286 0,-25.71429 0,-0.69293 0.0919,-8.47954 0,-8.57143 -0.11498,-0.11497 -10.37933,0 -11.42858,0 -4.7619,0 -9.52381,0 -14.28571,0 -0.95238,0 -2.18371,-0.67343 -2.85714,0 -0.67344,0.67344 0,1.90477 0,2.85715 0,0.95238 0,1.90476 0,2.85714 0,13.33333 0,26.66667 0,40"
       id="path4316"
       inkscape:connector-curvature="0" />
    <path
       style="fill:none;fill-rule:evenodd;stroke:#000000;stroke-width:1px;stroke-linecap:butt;stroke-linejoin:miter;stroke-opacity:1"
       d="m 337.14286,726.64792 c 0,-19.04762 0,-38.09524 0,-57.14286 0,-2.85714 0,-5.71428 0,-8.57143 0,-0.95238 -0.67344,-2.1837 0,-2.85714 0.67343,-0.67343 1.90476,0 2.85714,0 1.34714,0 14.15622,-0.12949 14.28571,0 0.67344,0.67344 0,1.90476 0,2.85714 0,0.95238 0,1.90477 0,2.85715 0,7.61904 0,15.23809 0,22.85714 0,1.49406 0.37563,10.67731 0,11.42857 -0.60233,1.20468 -2.2548,1.65247 -2.85714,2.85714 -0.85183,1.70367 1.34687,4.36742 0,5.71429 -0.67343,0.67343 -2.18371,-0.67344 -2.85714,0 -4.03843,4.03843 -9.18767,15.51819 -11.42857,20 z"
       id="path4318"
       inkscape:connector-curvature="0" />
    <path
       style="fill:none;fill-rule:evenodd;stroke:#000000;stroke-width:1px;stroke-linecap:butt;stroke-linejoin:miter;stroke-opacity:1"
       d="m 380,732.3622 c 1.90476,-3.80952 4.13247,-7.47402 5.71429,-11.42857 0.51262,-1.28157 0,-6.95697 0,-8.57143 0,-6.66666 0,-13.33333 0,-20 0,-2.85714 -0.46972,-5.75316 0,-8.57142 0.49511,-2.97072 1.90476,-5.71429 2.85714,-8.57143 0,-3.80953 -0.53875,-7.65734 0,-11.42857 0.42592,-2.98143 2.36202,-5.60072 2.85714,-8.57143 0.64504,-3.87022 0,-15.2689 0,-20 0,-1.90476 -0.60234,-3.90727 0,-5.71429 3.53058,-10.59173 2.85714,3.48272 2.85714,-5.71428 0,-0.95238 0,-3.80953 0,-2.85715 0,31.42857 0,62.85715 0,94.28572 0,6.66666 0,13.33333 0,20 0,2.85714 0,5.71428 0,8.57143 0,0.95238 0.95239,2.85714 0,2.85714 -0.95238,0 0,-1.90476 0,-2.85714 0,-6.66667 0,-13.33334 0,-20 0,-23.80953 0,-47.61905 0,-71.42858"
       id="path4320"
       inkscape:connector-curvature="0" />
  </g>
</svg>
